<?xml version="1.0" encoding="utf-8"?>
<!-- Generator: Adobe Illustrator 27.5.0, SVG Export Plug-In . SVG Version: 6.00 Build 0)  -->
<svg version="1.1" id="Layer_1" xmlns="http://www.w3.org/2000/svg" xmlns:xlink="http://www.w3.org/1999/xlink" x="0px" y="0px"
	 viewBox="0 0 318 141" style="enable-background:new 0 0 318 141;" xml:space="preserve">
<style type="text/css">
	.st0{fill:#231815;}
	.st1{fill:#FFFFFF;}
	.st2{fill:#EB0FAE;}
	.st3{fill:#F5D84C;}
</style>
<g>
	<path class="st0" d="M99.19,44.37l-44.22-0.59c0,0-2.07,0.33-3.96,3.07c-0.78,1.13-0.64,1.94-2,2.81
		c-2.86,1.84-4.95,1.29-6.49,2.23c-2.48,1.52-1.96,3.14-3.77,4.69c-2.11,1.81-5.19,1.67-6.96,3.67c-1.31,1.47-6.3,6.78-6.3,6.78
		s3.64,18.31,1.19,20.09c-2.44,1.78-14.86-3.17-19.94-1.2c-2.99,1.16-7.29,5.08-6.93,15.15c0.13,3.66-0.22,10.47,1.11,13.78
		c2.32,5.77,6.4,6.7,8.89,6.56c2.8-0.16,9.24-2.1,13.33-2.44c1.63-0.14,3.19-0.28,3.56,0.67c1.02,2.62,1.33,5.93,0.11,11.11
		c-0.45,1.9-1.67,9-1.67,9l268.44,1.21c0,0-2.87-12.19-3-17.99c-0.03-1.48,0.62-2.33,0.95-2.71c1.61-1.85,4.49,0.03,6.84,0.52
		c7.67,1.59,12.36,2.74,16.25-2.26c2.15-2.76,3.23-9.42,3.29-16.56c0.06-6.58-0.57-13.66-6.11-16.22c-2.86-1.32-5.67-0.93-8-0.78
		c-4.47,0.3-7.71,1.65-9.91,1.67c-0.55,0-2.15,0-2.87-0.56c-0.96-0.74-0.99-2.17-0.89-3.22c0.62-6.67,1.67-15.17,1.67-15.17
		s-4.49-5.49-7.45-8.09c-1.15-1.01-2.52-1.17-3.83-1.46c-0.81-0.18-1.4-0.14-2.5-1.22c-2.88-2.84-2.26-3.49-3.28-4.33
		c-1.8-1.49-5.33-1.37-7-2.61c-1.67-1.24-0.67-3.22-1.61-4.44c-1.43-1.85-4.28-1.83-4.28-1.83l-43.13-0.13
		c0,0-7.28-23.73-30.59-36.04c-8.73-4.61-18.3-7.55-32.33-7.22c-11.23,0.27-18.06,2.77-23.33,5c-7.04,2.97-10.93,6.13-15,9.56
		c-3.08,2.59-7.98,7.32-11.44,12.69C101.49,34.6,99.19,44.37,99.19,44.37z"/>
	<g>
		<path class="st1" d="M308.69,88.44c-4.69-1.08-11.18,1.29-13.43,1.7c-4,0.74-6.67,0-8.15-3.26c-0.67-1.48-0.52-5.18-0.16-8.8
			H30.12c0.04,0.7,0.07,1.43,0.08,2.17c0.06,5.51,0.59,6.19-1.63,9.19c-1.41,1.91-11.33-0.23-13.37-0.56
			c-2.04-0.32-3.7-0.96-5.96-0.67c-2.26,0.3-6.96,1.7-6.74,14.04c0.08,4.57,0.23,7.45,0.95,9.77c1.23,3.94,3.55,5.54,5.86,5.75
			c3.67,0.33,11.89-2.44,16-2.33c4.11,0.11,4.67,2.22,5.22,7.78c0.14,1.37,0.1,2.88-0.02,4.38h256.14
			c-0.12-0.84-0.61-4.79,0.41-8.02c0.67-2.12,1.08-3.75,4.36-3.92c6.33-0.32,15.81,5.72,20.44,0.3c1.87-2.19,2.78-6.5,2.78-13.57
			C314.64,91.63,312.34,89.28,308.69,88.44z"/>
		<path class="st1" d="M29.9,75.55h257.35c0.42-3.32,0.9-6.03,0.9-6.03h-69.41c0,0,0.28-2.81,0.13-7.22c35.82,0,62.52,0,62.52,0
			s1.49,0,1.49-1.04s-1.36-0.84-1.49-0.87c0,0-26.75,0-62.61,0c-0.08-1.5-0.22-3.15-0.43-4.89c30.92,0,53.49,0,53.49,0
			s1.38,0,1.38-1.04s-1.26-0.84-1.38-0.87c0,0-22.7,0-53.74,0c-0.24-1.68-0.55-3.44-0.94-5.24c26.25,0,45.04,0,45.04,0
			s1.25,0,1.25-1.04s-1.15-0.84-1.25-0.87c0,0-19.01,0-45.49,0c-0.76-3.05-1.76-6.21-3.09-9.33c-2.52-5.9-7.03-11.59-11.85-16.74
			c-2.79-2.98-6.17-5.74-9.78-8.15c-8.87-5.92-19.19-9.89-33.38-9.89c-30.15,0-48.04,18.32-55.43,36.11c-1.12,2.7-1.98,5.39-2.63,8
			c-26.15,0-44.89,0-44.96,0c-0.24,0-0.74,0.24-0.74,0.78c0,0.54,0.17,1.13,0.78,1.13c0.18,0,18.65,0,44.47,0
			c-0.39,1.81-0.69,3.56-0.92,5.24c-31.44,0-54.54,0-54.63,0c-0.26,0-0.81,0.24-0.81,0.78c0,0.54,0.19,1.13,0.86,1.13
			c0.21,0,23.14,0,54.35,0c-0.18,1.75-0.29,3.39-0.34,4.89c-36.21,0-63.34,0-63.44,0c-0.28,0-0.88,0.24-0.88,0.78
			c0,0.54,0.21,1.13,0.93,1.13c0.24,0,27.28,0,63.35,0c-0.03,4.42,0.39,7.22,0.39,7.22H28.86C28.86,69.51,29.51,71.99,29.9,75.55z
			 M106.97,36.37c7.69-15.75,25.21-31.56,51.65-31.56c26.87,0,44.76,16.44,52.49,32.35c7.88,16.22,5.33,31.91,5.33,31.91h-4.15
			c0,0,2.4-11.68-2.96-25.44C203.03,27.45,187,8.81,158.56,8.81c-7.43,0-14.48,2.24-20.18,4.44c-16.17,6.26-25.15,18.89-29.63,30.96
			c-5.13,13.81-3.11,25.29-3.11,25.29l-4.3-0.02C101.34,69.5,98.89,52.94,106.97,36.37z"/>
		<path class="st1" d="M30.21,130.14c-0.52,3.56-1.35,6.52-1.35,6.52h259.59l-1.3-6.52H30.21z"/>
	</g>
	<g>
		<g>
			<path class="st2" d="M46.9,92.54v-1.87h5.61v2.4h-0.55L46.9,92.54z M53.56,111.19l5.06,0.52v1.87H46.9v-1.87l5.06-0.52H53.56z
				 M49.58,101.48c0-3.59,0-7.22-0.1-10.81h6.07c-0.1,3.52-0.1,7.15-0.1,10.81v1.15c0,3.73,0,7.36,0.1,10.96h-6.07
				c0.1-3.52,0.1-7.15,0.1-10.81V101.48z M61.24,90.67l2.53,1.97H52.51v-1.97h12.43l0.24,6.01h-2.91L61.24,90.67z M60.29,102.78
				h-7.79v-2.06h7.79V102.78z M59.23,101.33l0.52-3.35h2.02v7.86h-2.02l-0.52-3.52V101.33z"/>
			<path class="st2" d="M92.79,102.12c0,8.04-5.31,12.11-11.07,12.11c-5.76,0-11.08-3.98-11.08-12.11c0-8.04,5.35-12.11,11.08-12.11
				S92.79,94,92.79,102.12z M81.72,112.21c3.51,0,4.89-4.3,4.89-10.09c0-5.76-1.38-10.11-4.89-10.11c-3.51,0-4.9,4.35-4.9,10.11
				C76.82,107.91,78.21,112.21,81.72,112.21z"/>
			<path class="st2" d="M120.76,102.12c0,8.04-5.31,12.11-11.07,12.11c-5.76,0-11.08-3.98-11.08-12.11
				c0-8.04,5.35-12.11,11.08-12.11S120.76,94,120.76,102.12z M109.7,112.21c3.51,0,4.89-4.3,4.89-10.09
				c0-5.76-1.38-10.11-4.89-10.11c-3.51,0-4.9,4.35-4.9,10.11C104.8,107.91,106.19,112.21,109.7,112.21z"/>
			<path class="st2" d="M126.56,92.54v-1.87h5.61v2.4h-0.55L126.56,92.54z M132.18,111.19v2.4h-5.61v-1.87l5.06-0.52H132.18z
				 M129.25,101.48c0-3.59,0-7.22-0.1-10.81h6.07c-0.1,3.52-0.1,7.15-0.1,10.81v1.15c0,3.73,0,7.36,0.1,10.96h-6.07
				c0.1-3.52,0.1-7.15,0.1-10.93V101.48z M132.18,111.58h4.15c3.99,0,6.46-3.42,6.46-9.47c0-6.14-2.47-9.44-6.4-9.44h-4.21v-2.01
				h4.75c7.43,0,11.91,4.34,11.91,11.39c0,7.28-4.91,11.52-12.53,11.52h-4.13V111.58z"/>
			<path d="M154.64,92.54v-1.87h5.61v2.4h-0.55L154.64,92.54z M161.31,111.19l5.06,0.52v1.87h-11.73v-1.87l5.06-0.52H161.31z
				 M157.33,101.48c0-3.59,0-7.22-0.1-10.81h6.07c-0.11,3.52-0.11,7.15-0.11,10.81v2.13c0,2.85,0,6.38,0.11,9.98h-6.07
				c0.1-3.52,0.1-7.15,0.1-10.81V101.48z M164.17,104.82h-3.91v-1.96h3.95c3.08,0,4.61-2.14,4.61-5.33c0-3.21-1.71-4.86-4.75-4.86
				h-3.81v-2.01h3.87c7.28,0,10.17,2.73,10.17,6.89C174.29,101.54,171.73,104.82,164.17,104.82z"/>
			<path d="M179.52,92.54v-1.87h5.61v2.4h-0.55L179.52,92.54z M185.13,111.19v2.4h-5.61v-1.87l5.06-0.52H185.13z M182.2,101.48
				c0-3.59,0-7.22-0.1-10.81h6.07c-0.1,3.52-0.1,7.15-0.1,10.81v1.15c0,3.73,0,7.36,0.1,10.96h-6.07c0.1-3.52,0.1-7.15,0.1-10.81
				V101.48z M193.63,90.67l2.53,1.97h-11.03v-1.97h12.2l0.24,6.01h-2.91L193.63,90.67z M192.81,102.78h-7.68v-2.06h7.68V102.78z
				 M198.27,107.58l-0.24,6.01h-12.9v-1.95h11.73l-2.53,1.95l1.03-6.01H198.27z M191.75,101.33l0.52-3.35h2.02v7.51h-2.02
				l-0.52-3.52V101.33z"/>
			<path d="M203.76,92.54v-1.87h5.61v2.4h-0.55L203.76,92.54z M209.37,111.19v2.4h-5.61v-1.87l5.06-0.52H209.37z M206.44,101.48
				c0-3.59,0-7.22-0.1-10.81h6.07c-0.11,3.52-0.11,7.15-0.11,10.81v1.15c0,3.73,0,7.36,0.11,10.96h-6.07
				c0.1-3.52,0.1-7.15,0.1-10.93V101.48z M209.37,111.58h4.15c3.99,0,6.46-3.42,6.46-9.47c0-6.14-2.47-9.44-6.4-9.44h-4.21v-2.01
				h4.75c7.43,0,11.91,4.34,11.91,11.39c0,7.28-4.91,11.52-12.53,11.52h-4.13V111.58z"/>
			<path d="M231.84,92.54v-1.87h11.25v1.87l-5.16,0.52h-1.02L231.84,92.54z M237.93,111.19l5.16,0.52v1.87h-11.25v-1.87l5.06-0.52
				H237.93z M234.52,101.48c0-3.59,0-7.22-0.1-10.81h6.07c-0.1,3.52-0.1,7.15-0.1,10.81v1.27c0,3.62,0,7.25,0.1,10.84h-6.07
				c0.1-3.52,0.1-7.15,0.1-10.81V101.48z"/>
			<path d="M248.02,111.71l3.59-0.52h0.62l3.31,0.52v1.87h-7.52V111.71z M257.93,90.62h3.6l7.85,22.97h-5.96l-5.96-18.73l1.31-1.76
				l-6.66,20.49h-2.07L257.93,90.62z M254.18,104.89h9.42l0.79,2.03H253.6L254.18,104.89z M260.05,111.79l3.94-0.52h2.33l4.48,0.52
				v1.8h-10.75V111.79z"/>
		</g>
	</g>
	<g>
		<polygon class="st3" points="158.7,13.09 160.83,17.41 165.59,18.1 162.15,21.46 162.96,26.2 158.7,23.96 154.44,26.2 
			155.26,21.46 151.81,18.1 156.57,17.41 		"/>
		<polygon class="st3" points="171.16,18.4 172.64,21.41 175.96,21.89 173.56,24.24 174.13,27.54 171.16,25.98 168.19,27.54 
			168.75,24.24 166.35,21.89 169.67,21.41 		"/>
		<polygon class="st3" points="146.56,18.4 148.05,21.41 151.37,21.89 148.96,24.24 149.53,27.54 146.56,25.98 143.59,27.54 
			144.16,24.24 141.76,21.89 145.08,21.41 		"/>
		<polygon class="st3" points="137.93,24.22 138.94,26.26 141.18,26.58 139.56,28.17 139.94,30.4 137.93,29.35 135.92,30.4 
			136.31,28.17 134.68,26.58 136.93,26.26 		"/>
		<polygon class="st3" points="179.88,24.22 180.88,26.26 183.13,26.58 181.5,28.17 181.89,30.4 179.88,29.35 177.87,30.4 
			178.25,28.17 176.62,26.58 178.87,26.26 		"/>
	</g>
	<path class="st0" d="M140.33,35.4c-1.63,1.41,1.85,7.85,2.59,8.74c0.74,0.89,4.22,3.85,5.48,4c1.26,0.15,2.96-0.37,3.7,0
		c0.74,0.37,3.78,3.78,4.22,4.44c0.44,0.67,10.67,12.89,11.93,14.15c1.26,1.26,2,1.85,3.41,1.93c1.41,0.07,2.67-1.2,2.22-2.89
		c-0.44-1.67-3.04-3.63-4.15-4.59c-1.11-0.96-12.74-10.37-13.7-11.33c-0.96-0.96-2.83-2.41-2.91-3.15
		c-0.07-0.74,0.33-3.47-0.86-5.39c-0.58-0.94-3.2-3.42-5.49-4.64C144.93,35.68,141.96,34,140.33,35.4z"/>
	<path class="st2" d="M176.4,37.01c-0.07,0.07-6.21,6.31-6.21,6.31s-0.72,0.51-0.9,0.23s0.09-0.57,0.38-0.83
		c0.25-0.23,6.19-6.04,6.3-6.14s0.25-0.4,0.07-0.61c-0.18-0.2-0.49-0.23-0.68-0.03s-6.17,6.29-6.17,6.29s-0.72,0.51-0.9,0.23
		s0.09-0.57,0.38-0.83c0.25-0.23,6.09-5.96,6.25-6.12c0.16-0.16,0.33-0.49,0.1-0.74c-0.23-0.26-0.53-0.22-0.71-0.04
		s-6.09,6.19-6.09,6.19s-0.72,0.51-0.9,0.23s0.09-0.57,0.38-0.83c0.24-0.22,6.13-5.93,6.28-6.07c0.15-0.15,0.18-0.4,0-0.6
		s-0.49-0.14-0.68,0c-0.19,0.14-1.46,1.09-3.5,2.67c-1.79,1.39-3.26,2.79-3.64,3.11c-0.89,0.74-3.24,3.1-3.39,4.36
		c-0.15,1.26,0.02,2.42-0.35,3.16c-0.37,0.74-3.78,3.78-4.44,4.22c-0.67,0.44-12.89,10.67-14.15,11.93c-1.26,1.26-1.85,2-1.93,3.41
		c-0.07,1.41,1.2,2.67,2.89,2.22c1.67-0.44,3.63-3.04,4.59-4.15c0.96-1.11,10.37-12.74,11.33-13.7c0.96-0.96,2.41-2.83,3.15-2.91
		c0.74-0.07,2.7,0.42,4.63-0.76c0.94-0.58,3.91-3.47,5.41-5.59c0.61-0.86,3.09-3.68,3.2-3.81c0.11-0.13,0.21-0.45-0.04-0.7
		S176.47,36.94,176.4,37.01z"/>
</g>
</svg>
